<?xml version="1.0" encoding="utf-8"?>
<!-- Generator: Adobe Illustrator 18.1.1, SVG Export Plug-In . SVG Version: 6.00 Build 0)  -->
<svg version="1.1" id="Layer_1" xmlns="http://www.w3.org/2000/svg" xmlns:xlink="http://www.w3.org/1999/xlink" x="0px" y="0px"
	 viewBox="0 0 256 256" enable-background="new 0 0 256 256" xml:space="preserve">
<rect fill="#2F2B2C" width="256" height="256"/>
<g>
	<path fill="#FFFFFF" d="M112.4,180.6c-6.4,1-26.4,2.7-34.9,2.7c-28.3,0-47.7-9.3-47.7-45.8V66c0-1.8,1.4-3,3.2-3h21
		c1.8,0,3.2,1.3,3.2,3v71.5c0,16.3,4.3,22.9,18.7,22.9c5.4,0,13.3-0.5,18.7-1.1V66c0-1.8,1.4-3,3.2-3h20.8c1.8,0,3.4,1.3,3.4,3
		v103.5C122,177.4,119.1,179.6,112.4,180.6z"/>
	<path fill="#F0502D" d="M182.4,140.2c-3.8,0-9-0.3-13-0.5v38.9c0,1.8-1.4,3.2-3.2,3.2h-20.6c-1.8,0-3.2-1.3-3.2-3V71.3
		c0-5.4,2.2-6.9,7.2-7.7c8.2-1.3,21-2.1,32.5-2.1c24.2,0,48,8.5,48,38.6v1.4C230.1,131.4,206.2,140.2,182.4,140.2z M202.9,100.1
		c0-11.4-7-15.8-20.5-15.8c-2.2,0-11,0.3-13,0.5v32.6c1.8,0.2,11.2,0.3,13,0.3c14.2,0,20.5-5.3,20.5-16.2V100.1z"/>
</g>
</svg>
